<svg xmlns="http://www.w3.org/2000/svg" width="1024" height="1024" viewBox="0 0 1024 1024"><rect width="100%" height="100%" fill="#DDDDDD"/><path fill="#999999" d="M216.53 483.175v46.92h-9.41v-46.92zm8.6 12.05h8.74l.38 4.61q1.68-2.51 4.21-3.88t5.85-1.37q3.35 0 5.74 1.48 2.38 1.48 3.6 4.48 1.62-2.81 4.19-4.38 2.58-1.58 6.06-1.58 5.16 0 8.14 3.56t2.98 10.84v21.11h-9.41v-21.14q0-3.96-1.29-5.51t-3.83-1.55q-2 0-3.47.89-1.46.88-2.33 2.46 0 .62.03 1.05.03.44.03.89v22.91h-9.38v-21.14q0-3.87-1.29-5.46-1.29-1.6-3.86-1.6-1.91 0-3.34.73-1.43.72-2.37 2.04v25.43h-9.38zm86.98 34.87h-9.41q-.51-1.19-.88-2.51t-.53-2.71q-1.45 2.55-3.82 4.22-2.37 1.68-5.66 1.68-5.48 0-8.44-2.82-2.97-2.82-2.97-7.69 0-5.12 3.95-7.94t11.52-2.82h5.25v-2.77q0-2.52-1.32-3.9-1.32-1.39-3.9-1.39-2.28 0-3.53 1.11-1.24 1.11-1.24 3.08l-9.08-.03-.04-.2q-.22-4.41 3.84-7.62 4.06-3.2 10.67-3.2 6.25 0 10.15 3.17t3.9 9.04v14.41q0 2.44.37 4.6t1.17 4.29m-18.01-6.28q2.48 0 4.41-1.23 1.94-1.22 2.61-2.83v-4.94h-5.25q-3 0-4.54 1.5-1.55 1.5-1.55 3.63 0 1.74 1.16 2.8 1.16 1.07 3.16 1.07m22.14-10.19v-.67q0-8.25 3.59-13.31 3.6-5.06 10.07-5.06 2.94 0 5.16 1.32t3.8 3.77l.74-4.45h8.12v34.71q0 6.8-4.46 10.52t-12.42 3.72q-2.65 0-5.61-.72-2.96-.73-5.48-1.98l1.74-7.03q2.16 1.03 4.4 1.56 2.24.54 4.88.54 3.87 0 5.69-1.62 1.82-1.61 1.82-5.02v-3.16q-1.55 1.96-3.64 3-2.09 1.03-4.8 1.03-6.41 0-10.01-4.72-3.59-4.73-3.59-12.43m9.41-.67v.67q0 4.58 1.55 7.2 1.54 2.63 5.02 2.63 2.16 0 3.66-.79t2.4-2.3v-15.15q-.9-1.58-2.4-2.45t-3.59-.87q-3.45 0-5.05 3.06-1.59 3.06-1.59 8m44.73 17.82q-7.54 0-12.05-4.84-4.52-4.83-4.52-12.28v-1.28q0-7.77 4.27-12.8t11.46-4.99q7.06 0 10.96 4.25t3.9 11.51v5.12h-20.82l-.06.19q.25 3.45 2.3 5.67 2.05 2.23 5.56 2.23 3.12 0 5.19-.63 2.06-.63 4.51-1.98l2.54 5.8q-2.12 1.74-5.57 2.88-3.45 1.15-7.67 1.15m-.84-28.94q-2.61 0-4.12 2-1.52 1.99-1.87 5.25l.09.16h11.54v-.84q0-3-1.4-4.78-1.4-1.79-4.24-1.79m20.34-6.61h8.73l.39 4.61q1.67-2.51 4.2-3.88t5.85-1.37q3.35 0 5.74 1.48 2.38 1.48 3.61 4.48 1.61-2.81 4.19-4.38 2.57-1.58 6.05-1.58 5.16 0 8.14 3.56t2.98 10.84v21.11h-9.41v-21.14q0-3.96-1.29-5.51t-3.83-1.55q-2 0-3.47.89-1.46.88-2.33 2.46 0 .62.03 1.05.03.44.03.89v22.91h-9.38v-21.14q0-3.87-1.28-5.46-1.29-1.6-3.87-1.6-1.9 0-3.34.73-1.43.72-2.37 2.04v25.43h-9.37zm84.3-12.05v46.92h-9.41v-46.92zm8.44 12.05h8.77l.42 5q1.74-2.68 4.29-4.16 2.54-1.48 5.7-1.48 5.28 0 8.25 3.32 2.96 3.31 2.96 10.4v21.79h-9.44v-21.75q0-3.52-1.42-4.98-1.41-1.47-4.28-1.47-1.87 0-3.35.76-1.49.76-2.49 2.14v25.3h-9.41zm35.97 18.4v-.67q0-8.25 3.56-13.31t10.04-5.06q2.61 0 4.7 1.12 2.1 1.13 3.68 3.23v-19.11h9.44v50.27h-8.09l-.77-4.25q-1.65 2.41-3.89 3.67t-5.14 1.26q-6.41 0-9.97-4.71-3.56-4.7-3.56-12.44m9.38-.67v.67q0 4.58 1.54 7.2 1.55 2.63 5.03 2.63 2.03 0 3.55-.82 1.51-.82 2.48-2.4v-14.86q-.97-1.64-2.47-2.56t-3.49-.92q-3.45 0-5.05 3.06-1.59 3.06-1.59 8m39.22-17.73v34.87h-9.41v-34.87zm0-15.4v7.05h-9.41v-7.05zm26.58 40.67q0-1.55-1.49-2.68-1.5-1.13-5.56-2-6.19-1.25-9.33-3.72-3.15-2.46-3.15-6.72 0-4.51 3.79-7.65t10.14-3.14q6.67 0 10.62 3.12 3.94 3.13 3.78 7.9l-.06.19h-9.09q0-2.09-1.34-3.41-1.34-1.33-3.91-1.33-2.29 0-3.6 1.12-1.3 1.11-1.3 2.78 0 1.61 1.37 2.65 1.37 1.03 5.56 1.83 6.44 1.29 9.57 3.79 3.12 2.5 3.12 6.88 0 4.7-4.02 7.69-4.03 2.98-10.64 2.98-6.96 0-11-3.53-4.05-3.53-3.86-8.04l.07-.2h8.6q.1 2.81 1.84 4.06 1.74 1.26 4.54 1.26 2.61 0 3.98-1.03t1.37-2.8m46.64-7.54v.67q0 7.74-3.58 12.44-3.58 4.71-9.99 4.71-2.74 0-4.87-1.02-2.12-1.01-3.64-2.98v16.73h-9.38v-48.28h8.48l.55 4.13q1.54-2.29 3.72-3.53 2.17-1.24 5.07-1.24 6.48 0 10.06 5.06t3.58 13.31m-9.41.67v-.67q0-4.94-1.65-8-1.64-3.06-5.03-3.06-2.12 0-3.62.87t-2.37 2.48v15.28q.87 1.48 2.37 2.25 1.5.78 3.69.78 3.42 0 5.01-2.68 1.6-2.67 1.6-7.25m13.76-.61v-.68q0-7.8 4.35-12.77 4.35-4.98 12.05-4.98 7.73 0 12.12 4.96 4.38 4.96 4.38 12.79v.68q0 7.86-4.37 12.81-4.36 4.95-12.07 4.95-7.73 0-12.1-4.95-4.36-4.95-4.36-12.81m9.37-.68v.68q0 4.77 1.68 7.65 1.68 2.89 5.41 2.89 3.65 0 5.34-2.9t1.69-7.64v-.68q0-4.64-1.71-7.57t-5.38-2.93q-3.64 0-5.33 2.95-1.7 2.94-1.7 7.55m29.17-17.11h8.76l.42 5q1.74-2.68 4.29-4.16t5.7-1.48q5.29 0 8.25 3.32 2.97 3.31 2.97 10.4v21.79h-9.44v-21.75q0-3.52-1.42-4.98-1.42-1.47-4.29-1.47-1.87 0-3.35.76t-2.48 2.14v25.3h-9.41zm47.5 0v34.87h-9.41v-34.87zm-9.44-4.35 6.41-8.57h9.96l.06.19-8.92 8.38zm24.2 4.35 5.87 21.88.61 3.23h.19l.65-3.23 5.73-21.88h9.83l-11.86 34.87h-8.99l-11.86-34.87zm41.93 35.55q-7.54 0-12.06-4.84-4.51-4.83-4.51-12.28v-1.28q0-7.77 4.27-12.8t11.46-4.99q7.06 0 10.96 4.25t3.9 11.51v5.12h-20.82l-.07.19q.26 3.45 2.31 5.67 2.04 2.23 5.56 2.23 3.12 0 5.19-.63 2.06-.63 4.51-1.98l2.54 5.8q-2.12 1.74-5.57 2.88-3.45 1.15-7.67 1.15m-.84-28.94q-2.61 0-4.13 2-1.51 1.99-1.86 5.25l.09.16h11.54v-.84q0-3-1.4-4.78-1.4-1.79-4.24-1.79m30.23-22.01v50.27h-9.41v-50.27z"/></svg>